#!OML:ASF F:\VICON\USERDATA\INSTALL\rory3\rory3.ASF
:FULLY-SPECIFIED
:DEGREES
2977
root 2.76541 17.6812 8.67475 3.21332 -8.38328 1.6451
lowerback 4.25474 -1.2483 -2.90958
upperback 1.77869 -1.75577 3.24949
thorax -0.362714 -0.908343 5.0703
lowerneck -9.68507 -12.8111 -16.6084
upperneck 11.4724 -17.7941 18.0942
head 8.3451 -8.10651 6.50151
rclavicle -1.33186e-014 1.11319e-014
rhumerus -4.31198 -22.6255 -40.5756
rradius 50.8567
rwrist 1.69199
rhand -24.6318 3.67271
rfingers 7.12502
rthumb 1.86722 -26.2989
lclavicle -1.33186e-014 1.11319e-014
lhumerus -22.6071 28.5856 28.8104
lradius 48.3749
lwrist 15.2625
lhand -21.0564 34.3285
lfingers 7.12502
lthumb 5.31987 64.2417
rfemur -9.23339 8.98804 14.2202
rtibia 37.4273
rfoot -9.10968 18.3392
rtoes 13.8721
lfemur -20.5267 -2.90476 -18.6848
ltibia 28.1107
lfoot -6.90843 -7.35591
ltoes -16.5669
2978
root 2.80881 17.697 8.73563 3.07144 -8.78422 1.73327
lowerback 4.20688 -1.27965 -3.05892
upperback 1.70253 -1.80224 3.21562
thorax -0.40561 -0.929794 5.12163
lowerneck -9.87241 -12.7624 -16.5172
upperneck 11.6534 -17.7141 17.9437
head 8.39745 -8.06041 6.44196
rclavicle -3.53837e-014 4.29375e-014
rhumerus -3.62824 -22.8871 -39.3477
rradius 52.3591
rwrist 1.17131
rhand -25.1898 3.63083
rfingers 7.12502
rthumb 1.32821 -26.3448
lclavicle -3.53837e-014 4.29375e-014
lhumerus -22.0479 28.4254 27.8453
lradius 49.534
lwrist 15.6391
lhand -21.2002 34.9578
lfingers 7.12502
lthumb 5.18106 64.8744
rfemur -9.03921 8.99982 13.9333
rtibia 37.4613
rfoot -8.83237 18.2946
rtoes 13.189
lfemur -20.0779 -2.53207 -19.0232
ltibia 28.0237
lfoot -6.98991 -7.29761
ltoes -16.1187
2979
root 2.85037 17.7098 8.79029 3.00444 -9.14746 1.70284
lowerback 4.16157 -1.35082 -3.1079
upperback 1.64356 -1.89802 3.20073
thorax -0.429252 -0.976326 5.13728
lowerneck -9.93055 -12.7002 -16.4822
upperneck 11.5326 -17.6289 18.0562
head 8.36185 -8.01174 6.48708
rclavicle -3.18055e-015 -5.56597e-015
rhumerus -2.78797 -23.2078 -38.2776
rradius 53.7972
rwrist 0.681413
rhand -25.6023 3.67989
rfingers 7.12502
rthumb 0.929871 -26.2978
lclavicle -3.18055e-015 -5.56597e-015
lhumerus -21.5885 28.3546 26.8124
lradius 50.7435
lwrist 15.9748
lhand -17.2736 31.2372
lfingers 7.12502
lthumb 8.97136 61.0264
rfemur -8.92254 9.0202 13.7939
rtibia 37.523
rfoot -8.59138 18.1934
rtoes 13.0036
lfemur -19.7416 -2.19563 -19.2116
ltibia 27.9362
lfoot -6.95021 -7.22502
ltoes -14.8725
2980
root 2.89002 17.7165 8.8355 2.87143 -9.53929 1.6919
lowerback 4.24744 -1.39328 -3.20916
upperback 1.63687 -1.96062 3.16776
thorax -0.4747 -1.00687 5.16576
lowerneck -10.179 -12.6825 -16.3967
upperneck 11.4582 -17.6015 18.2024
head 8.38543 -7.9738 6.51562
rclavicle -1.19271e-015 1.74931e-014
rhumerus -1.89315 -23.5834 -37.2869
rradius 55.148
rwrist 0.272963
rhand -26.0513 3.73033
rfingers 7.12502
rthumb 0.496229 -26.2488
lclavicle -1.19271e-015 1.74931e-014
lhumerus -21.0489 28.3274 25.8207
lradius 51.9524
lwrist 16.1441
lhand -19.3139 33.7541
lfingers 7.12502
lthumb 7.00215 63.6183
rfemur -8.7721 9.12457 13.6604
rtibia 37.6139
rfoot -8.15579 17.9702
rtoes 13.5997
lfemur -19.3874 -1.90638 -19.3977
ltibia 27.8719
lfoot -6.99201 -7.04306
ltoes -14.554
2981
root 2.92922 17.7249 8.8792 2.73198 -10.0051 1.7333
lowerback 4.27974 -1.3814 -3.33004
upperback 1.67023 -1.95123 3.10129
thorax -0.457559 -1.00351 5.1651
lowerneck -10.6026 -12.6857 -16.2571
upperneck 11.5059 -17.5851 18.2349
head 8.46465 -7.93285 6.48659
rclavicle 9.74045e-015 -1.82882e-014
rhumerus -1.0398 -24.0507 -36.3086
rradius 56.4562
rwrist -0.191945
rhand -26.5769 3.96669
rfingers 7.12502
rthumb -0.0114496 -26.0131
lclavicle 9.74045e-015 -1.82882e-014
lhumerus -20.3279 28.4385 24.9854
lradius 53.1493
lwrist 16.1848
lhand -15.5833 29.7355
lfingers 7.12502
lthumb 10.6021 59.4481
rfemur -8.68162 9.20272 13.4525
rtibia 37.7296
rfoot -7.62095 17.7764
rtoes 14.1352
lfemur -19.0336 -1.70469 -19.6259
ltibia 27.8455
lfoot -7.1064 -6.73698
ltoes -14.7583
2982
root 2.96903 17.7354 8.92797 2.76459 -10.4807 1.71835
lowerback 4.18178 -1.38131 -3.32747
upperback 1.57295 -1.94869 3.03839
thorax -0.505856 -0.998748 5.0964
lowerneck -10.9016 -12.6738 -16.086
upperneck 11.5957 -17.5621 18.1837
head 8.52177 -7.89922 6.4322
rclavicle 3.28989e-014 7.15625e-015
rhumerus -0.34787 -24.4496 -35.3164
rradius 57.777
rwrist -0.78004
rhand -27.0586 4.48872
rfingers 7.12502
rthumb -0.476646 -25.4905
lclavicle 3.28989e-014 7.15625e-015
lhumerus -19.6928 28.3584 24.1346
lradius 54.3302
lwrist 16.3511
lhand -16.2388 29.8143
lfingers 7.12502
lthumb 9.96976 59.5582
rfemur -8.79059 9.13975 13.2611
rtibia 37.8621
rfoot -7.17122 17.6681
rtoes 14.4461
lfemur -18.8292 -1.52423 -19.7981
ltibia 27.8232
lfoot -7.158 -6.37063
ltoes -14.5366
2983
root 3.00761 17.7474 8.97643 2.81647 -10.9328 1.62479
lowerback 4.16957 -1.4295 -3.28583
upperback 1.40323 -2.00976 3.04688
thorax -0.668328 -1.02191 5.0869
lowerneck -11.0474 -12.6701 -16.0266
upperneck 11.61 -17.5402 18.1263
head 8.53648 -7.88197 6.39984
rclavicle -3.80673e-014 -2.62396e-014
rhumerus 0.325739 -24.6659 -34.3187
rradius 59.1374
rwrist -1.2894
rhand -27.6635 4.54878
rfingers 7.12502
rthumb -1.06096 -25.4283
lclavicle -3.80673e-014 -2.62396e-014
lhumerus -19.3604 28.1232 23.2175
lradius 55.5562
lwrist 16.77
lhand -16.023 29.4498
lfingers 7.12502
lthumb 10.178 59.1836
rfemur -8.90851 9.05086 13.1791
rtibia 37.9879
rfoot -6.80034 17.4524
rtoes 14.7715
lfemur -18.629 -1.30162 -19.8866
ltibia 27.7828
lfoot -7.25772 -6.02072
ltoes -14.3156
2984
root 3.04547 17.7606 9.01839 2.86807 -11.3115 1.43959
lowerback 4.12452 -1.48221 -3.21756
upperback 1.31686 -2.0753 3.12051
thorax -0.724523 -1.05191 5.12787
lowerneck -11.4439 -12.6692 -15.8432
upperneck 11.7716 -17.4914 17.8689
head 8.60567 -7.84225 6.27278
rclavicle 4.59193e-014 -1.90833e-014
rhumerus 0.953681 -24.8661 -33.199
rradius 60.5675
rwrist -1.8925
rhand -28.1804 4.27604
rfingers 7.12502
rthumb -1.56012 -25.698
lclavicle 4.59193e-014 -1.90833e-014
lhumerus -18.8278 28.1596 22.5194
lradius 56.627
lwrist 17.0338
lhand -17.345 29.5501
lfingers 7.12502
lthumb 8.90239 59.3423
rfemur -9.001 8.92308 13.2218
rtibia 38.1127
rfoot -6.48254 17.0979
rtoes 14.834
lfemur -18.4352 -1.12727 -19.8627
ltibia 27.7203
lfoot -7.38023 -5.76262
ltoes -14.5182
2985
root 3.08375 17.774 9.05688 2.88847 -11.6747 1.27521
lowerback 4.02056 -1.53123 -3.16949
upperback 1.34161 -2.13696 3.17472
thorax -0.633638 -1.08577 5.15541
lowerneck -12.0407 -12.671 -15.523
upperneck 12.0078 -17.4355 17.5108
head 8.7106 -7.7876 6.08216
rclavicle -3.79679e-014 3.18055e-015
rhumerus 1.69108 -25.2867 -32.1871
rradius 61.9836
rwrist -2.52837
rhand -28.6901 4.11786
rfingers 7.12502
rthumb -2.05237 -25.852
lclavicle -3.79679e-014 3.18055e-015
lhumerus -18.0647 28.4318 21.9284
lradius 57.5692
lwrist 16.9737
lhand -19.9116 30.3217
lfingers 7.12502
lthumb 6.42519 60.2042
rfemur -9.05774 8.70708 13.2389
rtibia 38.2455
rfoot -6.21271 16.7112
rtoes 14.4329
lfemur -18.2052 -0.997849 -19.8864
ltibia 27.6453
lfoot -7.49736 -5.40016
ltoes -15.5108
